<svg width="24" height="24" viewBox="0 0 24 24" fill="none" xmlns="http://www.w3.org/2000/svg">
<g clip-path="url(#clip0)">
<path fill-rule="evenodd" clip-rule="evenodd" d="M11.64 3C9.46401 3 7.70001 4.764 7.70001 6.94C7.70001 9.116 9.46401 10.88 11.64 10.88C13.816 10.88 15.58 9.116 15.58 6.94C15.58 4.764 13.816 3 11.64 3ZM5.70001 6.94C5.70001 3.65943 8.35944 1 11.64 1C14.9206 1 17.58 3.65943 17.58 6.94C17.58 10.2206 14.9206 12.88 11.64 12.88C8.35944 12.88 5.70001 10.2206 5.70001 6.94Z" fill="#979797"/>
<path fill-rule="evenodd" clip-rule="evenodd" d="M11.64 15.3601C10.6367 15.3601 9.64323 15.5577 8.7163 15.9417C7.78937 16.3256 6.94714 16.8884 6.2377 17.5978C5.52826 18.3073 4.96551 19.1495 4.58156 20.0764C4.32586 20.6937 4.15281 21.3405 4.06573 22.0001H19.2143C19.1272 21.3405 18.9541 20.6937 18.6984 20.0764C18.3145 19.1495 17.7517 18.3073 17.0423 17.5978C16.3329 16.8884 15.4906 16.3256 14.5637 15.9417C13.6368 15.5577 12.6433 15.3601 11.64 15.3601ZM7.95093 14.0939C9.12051 13.6095 10.3741 13.3601 11.64 13.3601C12.9059 13.3601 14.1595 13.6095 15.3291 14.0939C16.4986 14.5784 17.5614 15.2884 18.4565 16.1836C19.3517 17.0788 20.0617 18.1415 20.5462 19.311C21.0307 20.4806 21.28 21.7342 21.28 23.0001V24.0001H2V23.0001C2 21.7342 2.24935 20.4806 2.7338 19.311C3.21826 18.1415 3.92833 17.0788 4.82349 16.1836C5.71865 15.2884 6.78135 14.5784 7.95093 14.0939Z" fill="#979797"/>
</g>
<defs>
<clipPath id="clip0">
<path d="M0 0H24V24H0V0Z" fill="white"/>
</clipPath>
</defs>
</svg>
