<svg width="13" height="14" viewBox="0 0 13 14" fill="none" xmlns="http://www.w3.org/2000/svg">
<path fill-rule="evenodd" clip-rule="evenodd" d="M7.17833 13.7348C6.79527 14.0884 6.20483 14.0884 5.82176 13.7348L0.321714 8.65783C-0.0841069 8.28322 -0.109413 7.65056 0.265191 7.24474C0.639796 6.83892 1.27245 6.81362 1.67828 7.18822L5.50004 10.716L5.50004 1C5.50004 0.447716 5.94776 6.15775e-07 6.50004 5.67551e-07C7.05233 5.19328e-07 7.50004 0.447716 7.50004 1L7.50004 10.716L11.3217 7.18823C11.7275 6.81362 12.3602 6.83892 12.7348 7.24474C13.1094 7.65055 13.0841 8.28321 12.6783 8.65782L7.17833 13.7348Z" fill="#FDB713"/>
</svg>
