<svg width="58" height="58" viewBox="0 0 58 58" fill="none" xmlns="http://www.w3.org/2000/svg">
<path d="M12.3859 33.3137V24.6008L0 20.757V22.3799C0.410015 23.3366 6.20717 26.1384 9.05449 27.4197V30.8365C6.3894 31.6565 1.90771 34.1394 0 35.2783V36.9867L12.3859 33.3137Z" fill="#FDB713"/>
<path d="M20.1605 43.714L14.0591 37.4943L2.52545 43.4238L3.66199 44.5824C4.62465 44.9782 10.7251 42.9187 13.6549 41.8394L16.0477 44.2786C14.7194 46.7303 13.2588 51.6412 12.6945 53.7901L13.8909 55.0097L20.1605 43.714Z" fill="#FDB713"/>
<path d="M33.4419 45.6141L24.7291 45.6141L20.8852 58L22.5082 58C23.4649 57.59 26.2666 51.7928 27.5479 48.9455L30.9647 48.9455C31.7848 51.6106 34.2676 56.0923 35.4065 58L37.1149 58L33.4419 45.6141Z" fill="#FDB713"/>
<path d="M43.8054 37.7498L37.5856 43.8512L43.5152 55.3849L44.6738 54.2483C45.0696 53.2857 43.0101 47.1853 41.9308 44.2554L44.3699 41.8627C46.8216 43.1909 51.7325 44.6516 53.8815 45.2158L55.1011 44.0195L43.8054 37.7498Z" fill="#FDB713"/>
<path d="M45.6141 24.4727L45.6141 33.1855L58 37.0294L58 35.4064C57.59 34.4497 51.7928 31.648 48.9455 30.3667L48.9455 26.9499C51.6106 26.1299 56.0923 23.647 58 22.5081L58 20.7997L45.6141 24.4727Z" fill="#FDB713"/>
<path d="M37.6899 14.1336L43.7913 20.3534L55.325 14.4238L54.1884 13.2652C53.2258 12.8694 47.1253 14.929 44.1955 16.0082L41.8027 13.5691C43.131 11.1174 44.5916 6.2065 45.1559 4.05752L43.9596 2.83796L37.6899 14.1336Z" fill="#FDB713"/>
<path d="M24.5581 12.3859L33.2709 12.3859L37.1148 0L35.4918 -7.09425e-08C34.5351 0.410015 31.7334 6.20717 30.4521 9.05449L27.0353 9.05449C26.2152 6.38939 23.7324 1.90771 22.5935 -6.34749e-07L20.8851 -7.09425e-07L24.5581 12.3859Z" fill="#FDB713"/>
<path d="M14.1946 20.2502L20.4144 14.1488L14.4848 2.61511L13.3262 3.75165C12.9304 4.71431 14.9899 10.8147 16.0692 13.7446L13.6301 16.1373C11.1784 14.8091 6.26747 13.3484 4.1185 12.7842L2.89893 13.9805L14.1946 20.2502Z" fill="#FDB713"/>
</svg>
